<svg width="21" height="21" viewBox="0 0 21 21" fill="none" xmlns="http://www.w3.org/2000/svg">
<path fill-rule="evenodd" clip-rule="evenodd" d="M11.5109 1.05304L11.5109 17.4051L19.2741 9.32015C19.6692 8.90864 20.3088 8.90864 20.704 9.32015C21.0987 9.73124 21.0987 10.3977 20.704 10.809L11.215 20.6915C10.8201 21.1028 10.1801 21.1028 9.78512 20.6915L0.296177 10.809C0.0989296 10.6032 6.66556e-07 10.3339 6.66556e-07 10.0643C6.66556e-07 9.79506 0.0989296 9.5252 0.296177 9.32015C0.690873 8.90864 1.33095 8.90864 1.72589 9.32015L9.489 17.4051L9.489 1.05304C9.489 0.471562 9.94153 5.53775e-07 10.5001 5.53775e-07C11.0583 5.53775e-07 11.5109 0.471525 11.5109 1.05304" fill="#434343"/>
</svg>
