<svg width="21" height="21" viewBox="0 0 21 21" fill="none" xmlns="http://www.w3.org/2000/svg">
<path fill-rule="evenodd" clip-rule="evenodd" d="M9.48906 19.947L9.48906 3.59485L1.72594 11.6799C1.33084 12.0914 0.691167 12.0914 0.296022 11.6799C-0.098674 11.2688 -0.098674 10.6023 0.296022 10.191L9.78496 0.308474C10.1799 -0.102825 10.8199 -0.102825 11.2149 0.308474L20.7038 10.191C20.9011 10.3968 21 10.6661 21 10.9357C21 11.2049 20.9011 11.4748 20.7038 11.6799C20.3091 12.0914 19.6691 12.0914 19.2741 11.6799L11.511 3.59485L11.511 19.947C11.511 20.5284 11.0585 21 10.4999 21C9.94166 21 9.48911 20.5285 9.48911 19.947" fill="#434343"/>
</svg>
